<?xml version="1.0" standalone="no"?>
<!DOCTYPE svg PUBLIC "-//W3C//DTD SVG 20010904//EN"
 "http://www.w3.org/TR/2001/REC-SVG-20010904/DTD/svg10.dtd">
<svg version="1.0" xmlns="http://www.w3.org/2000/svg"
 width="128.000000pt" height="128.000000pt" viewBox="0 0 128.000000 128.000000"
 preserveAspectRatio="xMidYMid meet">
<metadata>
Created by potrace 1.11, written by Peter Selinger 2001-2013
</metadata>
<g transform="translate(0.000000,128.000000) scale(0.100000,-0.100000)"
fill="#000000" stroke="none">
<path d="M215 1050 c-37 -8 -95 -38 -95 -49 0 -4 -15 -28 -34 -52 -45 -58 -59
-114 -51 -206 3 -41 8 -82 9 -91 2 -9 7 -51 11 -92 4 -41 8 -88 10 -105 2 -16
7 -54 10 -84 7 -65 25 -102 61 -126 37 -24 98 -24 131 1 30 23 34 28 69 109
14 33 30 68 35 77 5 10 9 25 9 33 0 19 10 19 37 0 75 -53 179 8 176 103 -1 8
15 12 48 12 44 0 49 -2 49 -22 0 -30 33 -84 59 -98 32 -17 87 -15 116 4 l26
17 20 -48 c84 -194 100 -210 197 -204 12 0 38 16 57 34 36 33 36 32 50 174 3
34 7 70 9 80 2 10 7 53 10 95 4 42 9 87 12 100 18 83 -6 197 -52 245 -11 11
-24 28 -30 38 -28 49 -132 74 -211 50 -42 -13 -100 -63 -140 -122 -13 -19 -25
-23 -69 -23 -38 0 -54 4 -54 13 0 9 -16 13 -54 12 -30 0 -54 -4 -53 -10 1 -5
-21 -11 -49 -13 -49 -3 -53 -1 -73 30 -23 38 -76 90 -107 106 -27 14 -100 20
-139 12z"/>
</g>
</svg>
